# xmcd
#
# Track frame offsets:
#	150
#	12484
#	29673
#	49159
#	67634
#	82350
#	107314
#	121754
#	140198
#	160231
#	180244
#	197136
#
# Disc length: 2866 seconds
#
# Revision: 0
# Processed by: cddbd v1.5.1PL0 Copyright (c) Steve Scherf et al.
# Submitted via: dBpowerAMP V4.0
#
DISCID=9f0b300c
DTITLE=Jackson Taylor Band - Goin' Down Swingin'
DYEAR=2004
DGENRE=Texas Country
TTITLE0=Whiskey and Women
TTITLE1=Goin' Down Swingin'
TTITLE2=Country State Of Mind
TTITLE3=Ragged Old Truck
TTITLE4=Barefeet On The Dash
TTITLE5=Broken
TTITLE6=Wicked, Wicked Me
TTITLE7=If I Could Have It My Way
TTITLE8=Faulkner By Dashboard Lights
TTITLE9=Shame
TTITLE10=Mama, Jesus and The Devil
TTITLE11=Titties and Beer
EXTD=
EXTT0=
EXTT1=
EXTT2=
EXTT3=
EXTT4=
EXTT5=
EXTT6=
EXTT7=
EXTT8=
EXTT9=
EXTT10=
EXTT11=
PLAYORDER=
